<?xml version="1.0" encoding="UTF-8" standalone="no"?>
<!DOCTYPE svg PUBLIC "-//W3C//DTD SVG 1.1//EN" "http://www.w3.org/Graphics/SVG/1.1/DTD/svg11.dtd">
<svg width="100%" height="100%" viewBox="0 0 265 223" version="1.1" xmlns="http://www.w3.org/2000/svg" xmlns:xlink="http://www.w3.org/1999/xlink" xml:space="preserve" xmlns:serif="http://www.serif.com/" style="fill-rule:evenodd;clip-rule:evenodd;stroke-linecap:round;stroke-linejoin:round;stroke-miterlimit:2;">
    <g transform="matrix(1,0,0,1,-118.823,-39.1049)">
        <g transform="matrix(1,0,0,1,1.17473,-41.9971)">
            <path d="M250,85.602C203.347,85.602 197.135,134.69 206.088,157.712C215.942,183.051 236.358,211.795 235.87,229.336C235.383,246.876 225.913,268.06 202.251,271.238C176.854,274.649 152.553,258.57 152.553,232.624C152.553,205.949 172.043,196.691 183.249,196.691C194.455,196.691 193.115,209.785 184.893,209.785" style="fill:none;stroke:rgb(89,59,195);stroke-width:9px;"/>
        </g>
        <g transform="matrix(1,0,0,1,1.17473,-41.9971)">
            <path d="M219.974,227.874C210.473,251.992 132.089,254.55 132.089,197.909C132.089,173.973 146.158,161.549 155.477,161.549C164.795,161.549 166.44,167.944 165.526,172.146C164.612,176.349 158.035,180.308 152.005,175.07" style="fill:none;stroke:rgb(89,59,195);stroke-width:9px;"/>
        </g>
        <g transform="matrix(1,0,0,1,1.17473,-41.9971)">
            <path d="M244.275,241.029C242.996,281.226 183.98,317.037 139.386,288.703C119.183,275.867 119.881,254.947 125.723,247.688C131.565,240.428 137.578,243.157 140.279,246.503C142.981,249.849 141.941,257.455 134.08,258.869" style="fill:none;stroke:rgb(89,59,195);stroke-width:9px;"/>
        </g>
        <g transform="matrix(1,0,0,1,1.17473,-41.9971)">
            <path d="M233.86,154.241C233.86,156.763 231.815,158.808 229.293,158.808C226.77,158.808 224.725,156.763 224.725,154.241" style="fill:none;stroke:rgb(89,59,195);stroke-width:9px;"/>
        </g>
        <g transform="matrix(1,0,0,1,1.17473,-41.9971)">
            <path d="M221.497,154.241L237.089,154.241" style="fill:none;stroke:rgb(89,59,195);stroke-width:9px;"/>
        </g>
        <g transform="matrix(1,0,0,1,1.17473,-41.9971)">
            <path d="M250,85.602C296.653,85.602 302.865,134.69 293.912,157.712C284.058,183.051 263.642,211.795 264.13,229.336C264.617,246.876 274.087,268.06 297.749,271.238C323.146,274.649 347.447,258.57 347.447,232.624C347.447,205.949 327.958,196.691 316.751,196.691C305.545,196.691 306.884,209.785 315.107,209.785" style="fill:none;stroke:rgb(89,59,195);stroke-width:9px;"/>
        </g>
        <g transform="matrix(1,0,0,1,1.17473,-41.9971)">
            <path d="M280.026,227.874C289.527,251.992 367.911,254.55 367.911,197.909C367.911,173.973 353.841,161.549 344.523,161.549C335.205,161.549 333.56,167.944 334.474,172.146C335.387,176.349 341.965,180.308 347.995,175.07" style="fill:none;stroke:rgb(89,59,195);stroke-width:9px;"/>
        </g>
        <g transform="matrix(1,0,0,1,1.17473,-41.9971)">
            <path d="M255.725,241.029C257.004,281.226 316.02,317.037 360.614,288.703C380.817,275.867 380.12,254.947 374.277,247.688C368.435,240.428 362.422,243.157 359.72,246.503C357.019,249.849 358.059,257.455 365.921,258.869" style="fill:none;stroke:rgb(89,59,195);stroke-width:9px;"/>
        </g>
        <g transform="matrix(1,0,0,1,1.17473,-41.9971)">
            <path d="M266.139,154.241C266.139,156.763 268.185,158.808 270.708,158.808C273.23,158.808 275.275,156.763 275.275,154.241" style="fill:none;stroke:rgb(89,59,195);stroke-width:9px;"/>
        </g>
        <g transform="matrix(1,0,0,1,1.17473,-41.9971)">
            <path d="M278.504,154.241L262.912,154.241" style="fill:none;stroke:rgb(89,59,195);stroke-width:9px;"/>
        </g>
    </g>
</svg>
