<svg xmlns="http://www.w3.org/2000/svg" viewBox="0 0 256 252">
  <g fill="none" fill-rule="evenodd">
    <path fill="#00546B" d="M235.666 194.25c-1.134 0-2.083.116-2.849.348-.198 0-.462-.116-.462-.348v-10.427c0-5.687-1.135-10.08-3.218-13.16-2.084-3.079-5.302-4.502-9.653-4.386h-6.067c-.198 0-.363.232-.363.463v4.386c0 .232.165.463.363.463h5.704c1.878 0 3.229.58 4.051 1.623.824 1.16 1.236 2.782 1.236 4.849v9.197c0 3.195.461 5.456 1.483 6.898.907 1.327 2.282 2.319 4.051 2.898-.99.463-1.878 1.044-2.586 1.739-1.022 1.044-1.616 2.319-1.878 3.94-.099.58-.165 1.275-.165 1.971v11.818c0 2.203-.412 3.824-1.236 4.849-.822 1.043-2.173 1.623-4.051 1.623h-5.704c-.198 0-.363.232-.363.463v4.386c0 .232.165.463.363.463h6.067c4.351 0 7.569-1.391 9.653-4.154 2.083-2.782 3.218-6.898 3.218-12.354v-10.544c0-.232.099-.348.264-.348.462 0 1.021.116 1.681.116 1.284.116 3.162.232 5.638.232.099 0 .231-.116.231-.232v-4.502c0-.116-.033-.232-.231-.232-1.945 0-3.757 0-5.373-.116-.264 0-.395-.115-.495-.347-.066-.232-.132-.58-.132-.927 0 0 0 0 0 0Zm-79.111 44.696c-5.044 0-9.79-.695-14.173-2.087-4.383-1.391-8.174-3.593-11.408-6.55-.198-.232-.264-.463-.165-.695l2.85-4.734c.099-.232.363-.232.626-.116 2.85 2.435 6.048 4.27 9.592 5.547 3.542 1.276 7.153 1.855 10.828 1.855 4.613 0 8.174-.811 10.73-2.55 2.553-1.74 3.856-4.155 3.856-7.35 0-2.087-.494-3.825-1.483-5.216-1.021-1.391-2.443-2.434-4.382-3.193-1.945-.811-4.416-1.507-7.464-2.203-4.878-1.043-8.9-2.203-12.034-3.593-3.096-1.391-5.506-3.31-7.131-5.745-1.615-2.434-2.443-5.629-2.443-9.544 0-3.477.856-6.55 2.586-9.197 1.713-2.666 4.25-4.733 7.497-6.24 3.328-1.506 7.267-2.318 11.883-2.318 4.053 0 7.86.58 11.375 1.739 3.542 1.159 6.641 2.897 9.361 5.1.198.232.297.463.165.695l-2.751 4.733c-.132.232-.363.232-.626.116-2.553-1.855-5.275-3.194-8.108-4.038-2.85-.927-5.703-1.391-8.52-1.391-4.35 0-7.662.811-9.95 2.434-2.289 1.623-3.427 3.825-3.427 6.666 0 2.087.527 3.825 1.516 5.1.99 1.276 2.443 2.203 4.284 2.898 1.846.695 4.284 1.391 7.234 2.087 4.878 1.044 8.933 2.087 12.1 3.362 3.163 1.275 5.606 3.077 7.234 5.331 1.615 2.203 2.443 5.1 2.443 8.668 0 3.361-.856 6.318-2.619 8.9-1.762 2.666-4.383 4.617-7.86 6.124-3.46 1.506-7.794 2.318-12.935 2.318ZM110.96 175.807c-.099 0-.132.116-.132.232v59.5c0 3.825-.692 6.666-1.978 8.436-1.284 1.74-3.097 2.666-5.373 2.666-1.615 0-3.163-.347-4.647-1.043-.165-.116-.363 0-.461.116l-2.454 4.502c-.099.232-.033.347.165.463 1.813 1.043 4.284 1.507 7.399 1.507 3.593 0 6.509-.695 8.735-2.203 2.223-1.506 3.823-3.592 4.878-6.318 1.021-2.666 1.549-5.86 1.549-9.428v-58.224c0-.116-.066-.232-.165-.232h-7.516v.026ZM87.518 237.422c-.165 0-.363-.116-.363-.232v-83.237c0-.116.066-.232.165-.232h7.663c.099 0 .165.116.165.232v9.544c0 .58.099.811.231.811.099 0 .231-.116.363-.347 1.021-2.087 2.553-3.825 4.547-5.1 1.945-1.276 4.218-1.855 6.805-1.855.89 0 1.978.116 3.163.232.099 0 .165.116.165.232v7.466c0 .116-.066.231-.165.231-1.087-.115-2.142-.231-3.097-.231-2.026 0-3.823.463-5.275 1.391-1.45.927-2.586 2.434-3.328 4.386-.757 2.087-1.119 5.1-1.119 9.081v56.601c0 .116-.099.231-.198.231l-9.722.027v-.001ZM40.206 237.422c-.099 0-.165-.116-.165-.232v-59.268c0-3.825-.692-6.666-2.01-8.32-1.317-1.739-3.163-2.55-5.506-2.55-1.714 0-3.361.58-4.944 1.623-1.615 1.044-3.064 2.782-4.416 5.1-.132.232-.297.347-.396.347-.099 0-.165-.232-.165-.695v-6.087c0-.116-.099-.232-.198-.232h-7.63c-.099 0-.165.116-.165.232v70.078c0 .116.066.232.165.232h9.724c.099 0 .165-.116.165-.232v-50.766c0-2.203.396-4.038 1.12-5.513.757-1.507 1.747-2.666 2.949-3.361 1.186-.695 2.487-1.044 3.855-1.044 2.025 0 3.526.696 4.383 2.203.89 1.507 1.317 3.94 1.317 7.119v51.346c0 .116.099.232.231.232h9.691c.099 0 .165-.116.165-.232v-52.735c0-2.203.363-4.038 1.086-5.513.723-1.507 1.714-2.666 2.882-3.477 1.186-.811 2.454-1.159 3.79-1.159 1.978 0 3.46.695 4.35 2.202.89 1.508 1.35 3.941 1.35 7.12v53.545c0 .116.066.232.165.232h9.723c.099 0 .165-.116.165-.232v-55.788c0-4.849-.724-8.784-2.19-11.818-1.484-3.078-3.494-5.1-6.116-6.203-2.586-1.16-5.374-1.74-8.438-1.74-3.097 0-5.803.58-8.175 1.74-2.388 1.16-4.383 3.077-5.968 5.745-.099.232-.231.348-.363.348-.099 0-.198-.116-.297-.348-1.318-2.55-3.097-4.502-5.341-5.629-2.223-1.159-4.713-1.739-7.465-1.739-2.553 0-4.944.58-7.2 1.739-2.223 1.159-4.185 3.077-5.77 5.513-.165.231-.297.347-.363.347-.099 0-.165-.231-.165-.811v-5.513c0-.116-.066-.232-.165-.232h-7.63c-.099 0-.165.116-.165.232v70.078c0 .116.066.232.165.232h9.691c.099 0 .165-.116.165-.232v-50.766c0-2.435.396-4.386 1.186-5.977.792-1.623 1.814-2.782 3.13-3.593 1.284-.811 2.652-1.16 4.086-1.16 1.978 0 3.46.696 4.35 2.203.856 1.507 1.284 3.94 1.284 7.119v52.158c0 .116.099.232.264.232h9.658v.027Z"/>
    <path fill="#E48E00" d="M222.357 5.323c-6.015 0-10.499 1.044-13.452 3.013-2.949 1.97-4.416 4.849-4.416 8.552v24.979c0 .231-.099.463-.264.463h-38.795c-.165 0-.264-.232-.264-.463V17.025c0-3.709-1.45-6.582-4.383-8.668-2.949-2.086-7.433-3.013-13.45-3.013h-14.607c-.198 0-.297.115-.297.347v4.386c0 .231.099.347.297.347h14.44c3.592 0 6.378.58 8.306 1.623 1.913 1.043 2.882 3.013 2.882 5.861v24.747c0 .231-.099.463-.297.463h-38.762c-.165 0-.264-.232-.264-.463V17.836c0-3.709-1.45-6.582-4.383-8.668-2.95-2.086-7.433-3.013-13.452-3.013h-14.604c-.198 0-.297.115-.297.347v4.386c0 .231.099.347.297.347h14.438c3.561 0 6.346.58 8.275 1.623 1.945 1.043 2.882 3.013 2.882 5.861v24.747c0 .231-.099.463-.297.463H61.988c-.165 0-.264-.232-.264-.463v-1.739c0-8.32-2.157-14.682-6.444-19.008-4.284-4.386-10.333-6.55-18.112-6.55-5.407 0-10.069 1.044-14.009 3.014-3.922 1.97-6.971 4.849-9.13 8.784-2.189 3.94-3.262 8.783-3.262 14.45v67.064c0 3.709 1.45 6.666 4.416 8.784 2.95 2.087 7.399 3.013 13.452 3.013h14.637c.165 0 .264-.115.264-.347v-4.386c0-.231-.099-.347-.264-.347H28.706c-3.625 0-6.444-.58-8.438-1.74-1.978-1.158-2.949-3.013-2.949-5.745V27.452c0-4.617.757-8.436 2.289-11.514 1.516-3.078 3.79-5.397 6.774-7.002 2.982-1.623 6.641-2.434 10.991-2.434 5.537 0 9.691 1.623 12.595 4.849 2.883 3.193 4.251 8.088 4.251 14.566v1.739c0 .231.099.463.264.463H95.51c.165 0 .264-.232.264-.463V17.836c0-3.709 1.45-6.582 4.383-8.668 2.949-2.086 7.433-3.013 13.484-3.013h14.571c.165 0 .264.115.264.347v4.386c0 .231-.099.347-.264.347h-14.439c-3.593 0-6.377.58-8.308 1.623-1.945 1.043-2.882 3.013-2.882 5.861v24.747c0 .231.099.463.264.463h38.763c.165 0 .264-.232.264-.463V17.836c0-3.709 1.45-6.582 4.383-8.668 2.949-2.086 7.433-3.013 13.452-3.013h14.605c.165 0 .297.115.297.347v4.386c0 .231-.132.347-.297.347h-14.439c-3.593 0-6.378.58-8.308 1.623-1.945 1.043-2.882 3.013-2.882 5.861v24.747c0 .231.099.463.264.463h38.762c.165 0 .297-.232.297-.463V17.836c0-3.709 1.45-6.582 4.383-8.668 2.949-2.086 7.433-3.013 13.452-3.013h14.607c.165 0 .264.115.264.347v4.386c0 .231-.099.347-.264.347h-14.439c-3.593 0-6.378.58-8.308 1.623-1.945 1.043-2.882 3.013-2.882 5.861v24.747c0 .231.099.463.264.463h38.763c.165 0 .264-.232.264-.463V17.836c0-3.709 1.45-6.582 4.416-8.668 2.949-2.086 7.399-3.013 13.452-3.013h14.571c.165 0 .264.115.264.347v4.386c0 .231-.099.347-.264.347h-14.439c-3.593 0-6.377.58-8.307 1.623-1.913 1.043-2.883 3.013-2.883 5.861v95.67c0 3.709-1.45 6.666-4.383 8.784-2.982 2.087-7.433 3.013-13.484 3.013h-14.572c-.165 0-.264-.115-.264-.347v-4.386c0-.231.099-.347.264-.347h14.439c3.593 0 6.378-.58 8.308-1.74 1.945-1.158 2.883-3.013 2.883-5.745V49.492c0-.232-.099-.463-.264-.463h-38.763c-.165 0-.264.231-.264.463v84.354c0 3.709-1.45 6.666-4.416 8.784-2.949 2.087-7.399 3.013-13.452 3.013h-14.604c-.165 0-.297-.115-.297-.347v-4.386c0-.231.132-.347.297-.347h14.439c3.593 0 6.378-.58 8.308-1.74 1.945-1.158 2.882-3.013 2.882-5.745V49.492c0-.232-.099-.463-.264-.463h-38.762c-.165 0-.297.231-.297.463v84.354c0 3.709-1.45 6.666-4.383 8.784-2.949 2.087-7.433 3.013-13.452 3.013h-14.604c-.165 0-.264-.115-.264-.347v-4.386c0-.231.099-.347.264-.347h14.439c3.561 0 6.346-.58 8.275-1.74 1.945-1.158 2.882-3.013 2.882-5.745V49.492c0-.232-.099-.463-.297-.463H61.988c-.165 0-.264.231-.264.463v84.354c0 3.709-1.45 6.666-4.383 8.784-2.949 2.087-7.433 3.013-13.452 3.013h-14.638c-.165 0-.264-.115-.264-.347v-4.386c0-.231.099-.347.264-.347h14.439c3.593 0 6.378-.58 8.308-1.74 1.945-1.158 2.882-3.013 2.882-5.745V49.492c0-.232-.099-.463-.264-.463H14.581c-.165 0-.297.231-.297.463v61.628c0 5.629-1.086 10.428-3.262 14.45-2.19 3.94-5.24 6.93-9.163 8.9-3.922 1.97-8.586 2.897-14.009 2.897-1.02 0-2.157-.116-3.361-.232-.165 0-.264-.116-.264-.347v-4.502c0-.232.099-.347.264-.347 1.054.116 2.025.232 2.883.232 5.571 0 9.724-1.623 12.628-4.849 2.883-3.194 4.284-8.088 4.284-14.567V49.492c0-.232-.099-.463-.297-.463H.066C-.1 49.029-.199 49.26-.199 49.492v4.386c0 .231.099.347.264.347h2.751v56.949c0 8.32 2.19 14.798 6.509 19.355 4.317 4.617 10.365 6.898 18.113 6.898 5.373 0 9.987-1.044 13.909-3.013 3.889-1.97 6.905-4.849 9.064-8.784 2.157-3.94 3.262-8.784 3.262-14.45V54.341c0-.231.099-.463.264-.463h40.034c.165 0 .264.232.264.463v79.505c0 3.709 1.45 6.666 4.383 8.784 2.949 2.087 7.433 3.013 13.452 3.013h14.638c.165 0 .264-.115.264-.347v-4.386c0-.231-.099-.347-.264-.347h-14.439c-3.593 0-6.378-.58-8.308-1.74-1.945-1.158-2.882-3.013-2.882-5.745V54.341c0-.231.132-.463.297-.463h40.034c.165 0 .264.232.264.463v79.505c0 3.709 1.45 6.666 4.383 8.784 2.949 2.087 7.433 3.013 13.452 3.013h14.604c.165 0 .264-.115.264-.347v-4.386c0-.231-.099-.347-.264-.347h-14.439c-3.593 0-6.377-.58-8.308-1.74-1.945-1.158-2.882-3.013-2.882-5.745V54.341c0-.231.099-.463.264-.463h40.034c.165 0 .264.232.264.463v79.505c0 3.709 1.451 6.666 4.416 8.784 2.949 2.087 7.4 3.013 13.452 3.013h14.605c.165 0 .264-.115.264-.347v-4.386c0-.231-.099-.347-.264-.347h-14.439c-3.593 0-6.378-.58-8.308-1.74-1.945-1.158-2.882-3.013-2.882-5.745V54.341c0-.231.099-.463.264-.463h40.034c.165 0 .264.232.264.463v79.505c0 3.709 1.45 6.666 4.383 8.784 2.949 2.087 7.433 3.013 13.484 3.013h14.571c.165 0 .264-.115.264-.347v-4.386c0-.231-.099-.347-.264-.347h-14.439c-3.593 0-6.377-.58-8.307-1.74-1.913-1.158-2.883-3.013-2.883-5.745V54.341c0-.231.099-.463.264-.463h2.487c.165 0 .264-.115.264-.347v-4.386c0-.232-.099-.347-.264-.347h-2.487c-.165 0-.264-.232-.264-.463V17.025c0-3.709 1.45-6.582 4.416-8.668 2.949-2.086 7.399-3.013 13.452-3.013h14.571c.165 0 .264.115.264.347v4.386c0 .231-.099.347-.264.347h-14.439c-3.593 0-6.378.58-8.308 1.623-1.945 1.043-2.882 3.013-2.882 5.861v31.528c0 .231.099.463.264.463h2.487c.165 0 .264.115.264.347v4.386c0 .232-.099.347-.264.347h-2.487c-.165 0-.264.232-.264.463v79.505c0 3.709-1.45 6.666-4.383 8.784-2.949 2.087-7.433 3.013-13.484 3.013h-14.571c-.165 0-.264-.115-.264-.347v-4.386c0-.231.099-.347.264-.347h14.439c3.593 0 6.377-.58 8.307-1.74 1.913-1.158 2.883-3.013 2.883-5.745V54.341c0-.231-.099-.463-.264-.463h-40.034c-.165 0-.264.232-.264.463v79.505c0 3.709-1.45 6.666-4.416 8.784-2.949 2.087-7.399 3.013-13.452 3.013h-14.604c-.165 0-.297-.115-.297-.347v-4.386c0-.231.132-.347.297-.347h14.439c3.593 0 6.378-.58 8.308-1.74 1.945-1.158 2.882-3.013 2.882-5.745V54.341c0-.231-.099-.463-.264-.463h-40.034c-.165 0-.297.232-.297.463v79.505c0 3.709-1.45 6.666-4.383 8.784-2.949 2.087-7.433 3.013-13.452 3.013h-14.604c-.165 0-.264-.115-.264-.347v-4.386c0-.231.099-.347.264-.347h14.439c3.561 0 6.346-.58 8.275-1.74 1.945-1.158 2.882-3.013 2.882-5.745V54.341c0-.231-.099-.463-.297-.463H61.988c-.165 0-.264.232-.264.463v79.505c0 3.709-1.45 6.666-4.383 8.784-2.949 2.087-7.433 3.013-13.452 3.013h-14.638c-.165 0-.264-.115-.264-.347v-4.386c0-.231.099-.347.264-.347h14.439c3.593 0 6.378-.58 8.308-1.74 1.945-1.158 2.882-3.013 2.882-5.745V54.341c0-.231-.099-.463-.264-.463H14.581c-.165 0-.297.232-.297.463v4.386c0 .231.132.347.297.347h2.784v56.949c0 8.32 2.157 14.798 6.476 19.355 4.284 4.617 10.333 6.898 18.112 6.898 5.374 0 9.987-1.044 13.877-3.013 3.922-1.97 6.971-4.849 9.13-8.784 2.189-3.94 3.262-8.784 3.262-14.45V59.189c0-.231.099-.463.264-.463h40.034c.165 0 .264.232.264.463v74.657c0 3.709 1.45 6.666 4.383 8.784 2.949 2.087 7.433 3.013 13.452 3.013h14.638c.165 0 .264-.115.264-.347v-4.386c0-.231-.099-.347-.264-.347h-14.439c-3.593 0-6.378-.58-8.308-1.74-1.945-1.158-2.882-3.013-2.882-5.745V59.189c0-.231.132-.463.297-.463h40.034c.165 0 .264.232.264.463v74.657c0 3.709 1.45 6.666 4.383 8.784 2.949 2.087 7.433 3.013 13.452 3.013h14.604c.165 0 .264-.115.264-.347v-4.386c0-.231-.099-.347-.264-.347h-14.439c-3.593 0-6.377-.58-8.308-1.74-1.945-1.158-2.882-3.013-2.882-5.745V59.189c0-.231.099-.463.264-.463h40.034c.165 0 .264.232.264.463v74.657c0 3.709 1.451 6.666 4.416 8.784 2.949 2.087 7.4 3.013 13.452 3.013h14.605c.165 0 .264-.115.264-.347v-4.386c0-.231-.099-.347-.264-.347h-14.439c-3.593 0-6.378-.58-8.308-1.74-1.945-1.158-2.882-3.013-2.882-5.745V59.189c0-.231.099-.463.264-.463h2.487c.165 0 .264-.115.264-.347v-4.386c0-.232-.099-.347-.264-.347h-2.487c-.165 0-.264-.232-.264-.463V22.106c0-3.71 1.45-6.666 4.416-8.785 2.949-2.086 7.399-3.013 13.452-3.013h14.571c.165 0 .264.116.264.348v4.386c0 .231-.099.347-.264.347h-14.439c-3.593 0-6.378.58-8.308 1.623-1.945 1.043-2.882 3.013-2.882 5.861v31.528c0 .231.099.463.264.463h2.487c.165 0 .264.115.264.347v4.386c0 .232-.099.347-.264.347h-2.487c-.165 0-.264.232-.264.463v74.657c0 3.709-1.45 6.666-4.383 8.784-2.949 2.087-7.433 3.013-13.484 3.013h-14.571c-.165 0-.264-.115-.264-.347v-4.386c0-.231.099-.347.264-.347h14.439c3.593 0 6.377-.58 8.307-1.74 1.913-1.158 2.883-3.013 2.883-5.745V59.189c0-.231-.099-.463-.264-.463h-2.487c-.165 0-.264-.115-.264-.347v-4.386c0-.232.099-.347.264-.347h2.487c.165 0 .264-.232.264-.463V22.106c0-3.71 1.45-6.666 4.383-8.785 2.982-2.086 7.433-3.013 13.484-3.013h14.571c.165 0 .297.116.297.348v4.386c0 .231-.132.347-.297.347h-14.439c-3.593 0-6.378.58-8.308 1.623-1.945 1.043-2.882 3.013-2.882 5.861v127.973c0 3.709-1.45 6.666-4.416 8.784-2.949 2.087-7.399 3.013-13.452 3.013h-14.604c-.165 0-.297-.115-.297-.347v-4.386c0-.231.132-.347.297-.347h14.439c3.593 0 6.378-.58 8.308-1.74 1.945-1.158 2.882-3.013 2.882-5.745V22.106c0-3.71 1.45-6.666 4.383-8.785 2.982-2.086 7.433-3.013 13.484-3.013h14.572c.165 0 .264.116.264.348v4.386c0 .231-.099.347-.264.347h-14.439c-3.593 0-6.377.58-8.307 1.623-1.913 1.043-2.883 3.013-2.883 5.861v127.973c0 3.709-1.45 6.666-4.383 8.784-2.949 2.087-7.433 3.013-13.484 3.013h-14.571c-.165 0-.264-.115-.264-.347v-4.386c0-.231.099-.347.264-.347h14.439c3.593 0 6.378-.58 8.308-1.74 1.945-1.158 2.882-3.013 2.882-5.745V22.106c0-3.71 1.45-6.666 4.416-8.785 2.949-2.086 7.399-3.013 13.452-3.013h14.571c.165 0 .264.116.264.348v4.386c0 .231-.099.347-.264.347h-14.439c-3.593 0-6.378.58-8.308 1.623-1.945 1.043-2.882 3.013-2.882 5.861v127.973c0 3.709-1.45 6.666-4.383 8.784-2.982 2.087-7.433 3.013-13.484 3.013h-14.572c-.165 0-.264-.115-.264-.347v-4.386c0-.231.099-.347.264-.347h14.439c3.593 0 6.377-.58 8.307-1.74 1.913-1.158 2.883-3.013 2.883-5.745V22.106c0-3.71 1.45-6.666 4.383-8.785 2.982-2.086 7.433-3.013 13.484-3.013h14.572c.165 0 .264.116.264.348v4.386c0 .231-.099.347-.264.347h-14.439c-3.593 0-6.377.58-8.307 1.623-1.913 1.043-2.883 3.013-2.883 5.861v127.973c0 3.709-1.45 6.666-4.383 8.784-2.949 2.087-7.433 3.013-13.484 3.013h-14.571c-.165 0-.264-.115-.264-.347v-4.386c0-.231.099-.347.264-.347h14.439c3.593 0 6.378-.58 8.308-1.74 1.945-1.158 2.882-3.013 2.882-5.745V22.106c0-3.71 1.45-6.666 4.383-8.785 2.982-2.086 7.433-3.013 13.484-3.013h14.572c.165 0 .264.116.264.348v4.386c0 .231-.099.347-.264.347h-14.439c-3.593 0-6.377.58-8.307 1.623-1.913 1.043-2.883 3.013-2.883 5.861v127.973c0 3.709-1.45 6.666-4.383 8.784-2.949 2.087-7.433 3.013-13.484 3.013h-14.571c-.165 0-.264-.115-.264-.347v-4.386c0-.231.099-.347.264-.347h14.439c3.593 0 6.378-.58 8.308-1.74 1.945-1.158 2.882-3.013 2.882-5.745V22.106c0-3.71 1.45-6.666 4.416-8.785 2.949-2.086 7.399-3.013 13.452-3.013h14.571c.165 0 .264.116.264.348v4.386c0 .231-.099.347-.264.347h-14.439c-3.593 0-6.378.58-8.308 1.623-1.945 1.043-2.882 3.013-2.882 5.861v127.973c0 3.709-1.45 6.666-4.383 8.784-2.949 2.087-7.433 3.013-13.484 3.013h-14.604c-.165 0-.264-.115-.264-.347v-4.386c0-.231.099-.347.264-.347h14.439c3.593 0 6.377-.58 8.308-1.74 1.945-1.158 2.882-3.013 2.882-5.745V22.106c0-3.71 1.45-6.666 4.383-8.785 2.982-2.086 7.433-3.013 13.484-3.013h14.572c.165 0 .264.116.264.348v4.386c0 .231-.099.347-.264.347h-14.439c-3.593 0-6.377.58-8.307 1.623-1.913 1.043-2.883 3.013-2.883 5.861v127.973c0 3.709-1.45 6.666-4.383 8.784-2.949 2.087-7.433 3.013-13.484 3.013h-14.571c-.165 0-.264-.115-.264-.347v-4.386c0-.231.099-.347.264-.347h14.439c3.593 0 6.378-.58 8.308-1.74 1.945-1.158 2.882-3.013 2.882-5.745V22.106c0-3.71 1.45-6.666 4.383-8.785 2.982-2.086 7.433-3.013 13.484-3.013h14.572c.165 0 .264.116.264.348v4.386c0 .231-.099.347-.264.347h-14.439c-3.593 0-6.377.58-8.307 1.623-1.913 1.043-2.883 3.013-2.883 5.861V150.08c0 3.709-1.45 6.666-4.383 8.784-2.949 2.087-7.433 3.013-13.484 3.013h-14.571c-.165 0-.264-.115-.264-.347v-4.386c0-.231.099-.347.264-.347h14.439c3.593 0 6.378-.58 8.308-1.74 1.945-1.158 2.882-3.013 2.882-5.745V22.106c0-3.71 1.45-6.666 4.416-8.785 2.916-2.053 7.366-2.998 13.419-2.998Z"/>
  </g>
</svg>
